<svg version="1.2" xmlns="http://www.w3.org/2000/svg" viewBox="0 0 126 42" width="126" height="42">
	<title>logo1-svg</title>
	<defs>
		<clipPath clipPathUnits="userSpaceOnUse" id="cp1">
			<path d="m0 0h46v42h-46z"/>
		</clipPath>
	</defs>
	<style>
		.s0 { fill: #28ba7b } 
	</style>
	<g id="Clip-Path" clip-path="url(#cp1)">
		<g id="Layer">
			<path id="Layer" fill-rule="evenodd" class="s0" d="m36.7 6.5c-6-6.2-15.2-8.2-23.3-5-8.1 3.2-13.4 10.9-13.4 19.4 0 8.6 5.2 16.3 13.3 19.5 8 3.3 17.3 1.4 23.3-4.8-7.9 6.8-19.8 6.2-27.1-1.3-7.2-7.5-7.2-19.3 0.1-26.7 7.3-7.5 19.3-7.9 27.1-1.1z"/>
			<path id="Layer" fill-rule="evenodd" class="s0" d="m39.7 32.2c-3.8 4.8-9.7 7.6-15.9 7.5-3.6 0-7-1-10-2.8 4.8-2.7 5.1-1.7 9.9 0.5q0 0 1.7-0.2c-4.7-2.4-7.4-4.5-12.2-0.7q-0.9-0.6-1.8-1.4 3.4-4.2 7.4-3.6c3.1 0.5 8.4 3.6 12.5 4.4q0 0 1.4-0.7c-5-0.4-9.8-4-13.8-4.6q-5.6-0.9-8.1 4-1.5-1.3-2.7-2.9 7.1-7.8 22.5-0.2 5.7 2.1 9.1 0.7zm-10.3 4.2q-1.2 0-4.7-1.1 2.1 1.4 3.3 1.5 0.9 0.1 1.4-0.4zm6.3-3.1q-3.7 1.5-9.8-1.8c2.3 1.9 5.2 2.9 8.2 3.1q0 0 1.6-1.3z"/>
			<path id="Layer" fill-rule="evenodd" class="s0" d="m37.1 30.9q-4.2-1.8-13.6-0.7-0.8 0.2-1.7 0.4l-0.7-1q1.4-0.4 3-0.9 0.7-2 3.3-1.9c0.5-0.4 1.2-0.6 1.8-0.5 0.7 0.1 1.2 0.5 1.6 1q4.1-5.4 1-16.1c-0.2 0.1-0.4 0.5-0.2 0.7q-0.1 1.3-0.2 2.6-0.1-0.6 0-1.2-0.3 1-0.2 2-0.1-0.5-0.1-0.9-0.2 0.7-0.1 1.4c-1-1.9-1-4.1 0.2-6q-0.9 0.6-1.5 1.5c0-0.5 0.2-0.9 0.5-1.3-0.7 0.4-1.4 1-1.8 1.8-0.1-0.5 0.1-1 0.5-1.4-0.9 0.4-1.6 1.1-1.8 2.1q0-0.6 0.2-1.2c-0.6 0.5-1.1 1.1-1.4 1.8 0.6-2.2 2.4-3.9 4.8-4.2-0.5-0.4-1.3-0.5-1.8-0.1 0.1-0.3 0.3-0.5 0.6-0.6-0.8 0.1-1.6 0.4-2.2 0.9 0.1-0.4 0.5-0.7 0.9-0.9-0.9 0.1-1.8 0.4-2.6 0.9q0.3-0.5 0.8-0.8c-0.7 0.2-1.3 0.6-1.7 1.2 0.5-1.5 1.7-2.6 3.3-2.9 1.5-0.3 3.1 0.3 4 1.5 0.4-1.2 1.4-2.1 2.7-2.1 1.2-0.1 2.4 0.6 2.9 1.7-0.4-0.6-1.1-0.9-1.8-0.8q0.3 0.2 0.4 0.5c-0.5-0.4-1.3-0.4-1.9-0.2q0.3 0 0.6 0.2-0.7 0-1.4 0.3 0.4-0.1 0.7 0.1c-0.5 0.1-1 0.4-1.1 0.8 1.3-0.6 2.8-0.3 3.9 0.6q-0.3 0-0.6 0.1c0.7 0.2 1.3 0.6 1.6 1.1 0.4 0.6 0.5 1.3 0.3 1.9-0.2-0.5-0.7-1-1.3-1.2 0.3 0.2 0.4 0.6 0.3 0.9-0.3-0.7-0.8-1.3-1.5-1.6q0.3 0.3 0.3 0.8c-0.2-0.5-0.7-0.9-1.2-1.1q0.1 0.2 0 0.5c-0.1-0.4-0.3-0.6-0.6-0.8q0.1 0.2 0.2 0.5c-0.3-0.4-0.7-0.6-1.1-0.5 1.4 1.3 2 3.3 1.4 5.1 0.1-0.9-0.2-1.8-0.7-2.5 0.1 0.2 0 0.5-0.2 0.6 0.1-0.3 0-0.7-0.2-1 0.1 0.2 0 0.4-0.1 0.5 0-0.3-0.1-0.6-0.3-0.9 0.1 0.2 0 0.4-0.1 0.5 0-0.5-0.2-0.9-0.6-1.1q2.2 5.1 1.7 13.1 1.2-2.7 4.5-6.2 0.2-0.3 0.1-0.6-0.2 0.5-0.8 1 0.3-0.4 0.4-0.8-0.5 0.4-0.8 1.1 0.1-0.3 0.1-0.6-0.2 0.5-0.6 0.9c0.1-1.6 1.3-2.9 2.8-3.1-0.2-0.3-0.6-0.4-0.9-0.3q-0.7 0.2-1.4 0.3 0.6-0.1 0.9-0.5c-0.7 0-1.4 0.3-2 0.6 0.1-0.3 0.4-0.6 0.8-0.7q-1 0.2-1.8 0.7c0.2-0.7 0.9-1.2 1.7-1.2q-0.4-0.1-0.8 0c0.6-0.4 1.3-0.5 2-0.3-0.1-0.2-0.4-0.3-0.6-0.3 1.1-0.3 2.2 0.1 2.9 1.1-0.1-0.8-0.4-1.5-0.9-2q0 0.2 0 0.6 0 0-0.4-0.8 0 0-0.1 0.3 0 0-0.1-0.4c-0.4-0.1-0.8-0.2-1.2-0.1 0.8-0.6 1.8-0.6 2.6-0.1 0.8 0.6 1.2 1.5 1 2.5 1.1-0.5 2.4-0.2 3.3 0.6 0.9 0.9 1.2 2.1 0.9 3.2 0-0.7-0.3-1.4-0.8-1.9 0.1 0.2 0 0.4-0.1 0.5-0.1-0.4-0.5-0.8-1-0.9 0.1 0.1 0.1 0.3 0 0.5-0.1-0.5-0.4-0.8-0.9-1q0.2 0.2 0.2 0.5c-0.3-0.4-0.8-0.5-1.2-0.4 1.6 1 2.2 3 1.6 4.7q0.1-0.9-0.2-1.8 0 0.4-0.2 0.8 0.1-0.7-0.1-1.3c0.1 0.1 0 0.3-0.1 0.4q0-0.8-0.3-1.2 0 0.5-0.3 0.9 0.1-1.2-0.5-1.6 0 0 0 0.7 0 0-0.5-1c0 1.5-0.8 3-2 3.9q0 0 0.3-1 0 0-0.4 0.2 0 0 0.6-1 0 0-0.2 0 0 0 0.6-0.7 0 0-0.3 0.1 0 0 0.4-0.5-0.2 0.1 0.2-0.6 0 0-0.2 0.2 0 0 0.3-0.7-6.1 5.7-5.8 12c1.9 0.4 3.5 1.4 4.8 2.7q-1.3-0.4-2.7-0.6zm2.8-14.2q-0.4 0.2-0.7 0.5 0 0.2-0.1 0.3 0.4-0.4 0.8-0.8zm-0.8 0.8q-0.1 0.2-0.3 0.4 0 0-0.1 0.1 0.3-0.2 0.4-0.5zm-27.2 13.7q-1.4-0.3-2.2-1 1.2 0.5 2.8 0.5z"/>
			<path id="Layer" fill-rule="evenodd" class="s0" d="m14.3 9.4c0.2-0.5 0.7-0.9 1.2-1.1 0.6-0.2 1.2 0 1.6 0.3 0-0.7-0.6-1.3-1.4-1.3-0.7 0-1.3 0.6-1.4 1.3-0.3-0.8-1.1-1.3-2-1.3-0.8 0-1.6 0.5-2 1.3 1.4-0.8 3.1-0.5 4 0.8z"/>
			<path id="Layer" fill-rule="evenodd" class="s0" d="m12.2 15.2c0.1-0.4 0.5-0.7 0.9-0.8 0.4-0.1 0.8 0 1.1 0.2 0-0.5-0.5-0.9-1-0.9-0.5 0-1 0.4-1 0.9-0.3-0.5-0.8-0.9-1.4-0.9-0.7 0-1.2 0.4-1.5 0.9 1-0.6 2.2-0.3 2.9 0.6z"/>
			<path id="Layer" fill-rule="evenodd" class="s0" d="m20.8 15.6c0.2-0.4 0.5-0.7 0.9-0.8 0.4-0.1 0.8 0 1.1 0.2 0-0.5-0.4-0.9-1-0.9-0.5 0-0.9 0.4-1 0.9-0.2-0.5-0.8-0.9-1.4-0.9-0.6 0-1.2 0.4-1.5 0.9 1-0.6 2.3-0.3 2.9 0.6z"/>
		</g>
	</g>
</svg>