<?xml version="1.0"?>
<svg xmlns="http://www.w3.org/2000/svg" height="311.35999" viewBox="0 0 311.35999 311.35999" width="311.35999" fill="#ffffff"><path d="m155.68 214.71a58.95 58.95 0 1 1 59-59 59 59 0 0 1 -59 59zm0-105.9a46.95 46.95 0 1 0 47 46.9 47 47 0 0 0 -47-46.95z" fill="#ffffff"/><path d="m155.68 74a37 37 0 1 1 37-37 37 37 0 0 1 -37 37zm0-61.94a25 25 0 1 0 25 25 25 25 0 0 0 -25-25z" fill="#ffffff"/><path d="m155.68 311.36a37 37 0 1 1 37-37 37 37 0 0 1 -37 37zm0-61.94a25 25 0 1 0 25 25 25 25 0 0 0 -25-25z" fill="#ffffff"/><path d="m274.36 192.71a37 37 0 1 1 37-37 37 37 0 0 1 -37 37zm0-61.94a25 25 0 1 0 25 25 25 25 0 0 0 -25-25.06z" fill="#ffffff"/><path d="m37 192.71a37 37 0 1 1 37-37 37 37 0 0 1 -37 37zm0-61.94a25 25 0 1 0 25 25 25 25 0 0 0 -25-25.06z" fill="#ffffff"/><path d="m71.76 276.58a37 37 0 1 1 26.14-10.81 36.84 36.84 0 0 1 -26.14 10.81zm0-61.91a25 25 0 1 0 17.65 7.31 24.91 24.91 0 0 0 -17.65-7.27z" fill="#ffffff"/><path d="m239.6 108.71a37 37 0 1 1 26.14-10.81 36.84 36.84 0 0 1 -26.14 10.81zm0-61.91a25 25 0 1 0 17.66 7.3 24.9 24.9 0 0 0 -17.66-7.27z" fill="#ffffff"/><path d="m239.6 276.58a37 37 0 1 1 26.14-10.81 36.84 36.84 0 0 1 -26.14 10.81zm0-61.91a25 25 0 1 0 17.66 7.31 24.87 24.87 0 0 0 -17.66-7.27z" fill="#ffffff"/><path d="m71.76 108.71a37 37 0 1 1 26.14-10.81 36.84 36.84 0 0 1 -26.14 10.81zm0-61.91a25 25 0 1 0 17.65 7.3 24.94 24.94 0 0 0 -17.65-7.27z" fill="#ffffff"/><path d="m194.51 122.88a6 6 0 0 1 -4.24-10.25l23.19-23.19a6.0033366 6.0033366 0 0 1 8.49 8.49l-23.19 23.19a6 6 0 0 1 -4.25 1.76z" fill="#ffffff"/><path d="m93.68 223.71a6 6 0 0 1 -4.25-10.24l23.19-23.19a6.0033366 6.0033366 0 0 1 8.49 8.49l-23.19 23.19a6 6 0 0 1 -4.24 1.75z" fill="#ffffff"/><path d="m217.68 223.71a6 6 0 0 1 -4.24-1.75l-23.19-23.19a6.0033366 6.0033366 0 0 1 8.49-8.49l23.19 23.19a6 6 0 0 1 -4.25 10.24z" fill="#ffffff"/><path d="m116.85 122.88a6 6 0 0 1 -4.25-1.76l-23.19-23.19a6.0033366 6.0033366 0 0 1 8.49-8.49l23.19 23.19a6 6 0 0 1 -4.24 10.25z" fill="#ffffff"/><path d="m155.68 106.79a6 6 0 0 1 -6-6v-32.79a6 6 0 1 1 12 0v32.79a6 6 0 0 1 -6 6z" fill="#ffffff"/><path d="m155.68 249.42a6 6 0 0 1 -6-6v-32.79a6 6 0 0 1 12 0v32.79a6 6 0 0 1 -6 6z" fill="#ffffff"/><path d="m243.39 161.71h-32.79a6 6 0 0 1 0-12h32.79a6 6 0 1 1 0 12z" fill="#ffffff"/><path d="m100.76 161.71h-32.79a6 6 0 1 1 0-12h32.79a6 6 0 1 1 0 12z" fill="#ffffff"/></svg>
