<?xml version="1.0"?>
<svg xmlns="http://www.w3.org/2000/svg" height="333.80988" viewBox="0 0 333.62671 333.80988" width="333.62671" fill="#f9d341"><path d="m166.81638 172.90989a6 6 0 0 1 -5.14-2.9l-47-77.66a60.86 60.86 0 1 1 104.16 0l-8.35 13.81a6 6 0 0 1 -10.21-6.25l8.35-13.8a48.86 48.86 0 1 0 -83.62 0l46.94 77.66a6 6 0 0 1 -5.13 9.14z" fill="#f9d341"/><path d="m272.81638 227.79989a60.77 60.77 0 0 1 -31.48-8.81l-13.81-8.35a6.0215654 6.0215654 0 0 1 6.29-10.27l13.8 8.35a48.86 48.86 0 1 0 0-83.62l-77.7 46.94a6 6 0 0 1 -6.2-10.26l77.66-47a60.86 60.86 0 1 1 31.48 113z" fill="#f9d341"/><path d="m166.81638 333.80989a60.86 60.86 0 0 1 -52.08-92.34l8.35-13.81a6.0111438 6.0111438 0 0 1 10.27 6.25l-8.35 13.8a48.86 48.86 0 1 0 83.62 0l-46.94-77.7a6 6 0 1 1 10.26-6.2l46.95 77.66a60.86 60.86 0 0 1 -52.08 92.34z" fill="#f9d341"/><path d="m60.816383 227.79989a60.87 60.87 0 1 1 31.48-113l13.809997 8.35a6.034362 6.034362 0 0 1 -6.289997 10.3l-13.8-8.35a48.86 48.86 0 1 0 0 83.62l77.659997-46.94a6 6 0 1 1 6.2 10.26l-77.659997 46.95a60.8 60.8 0 0 1 -31.4 8.81z" fill="#f9d341"/></svg>
