<?xml version="1.0"?>
<svg xmlns="http://www.w3.org/2000/svg" height="377.3302" viewBox="0 0 377.34009 377.3302" width="377.34009" fill="#fef649"><path d="m182.62705 162.90013a41.56 41.56 0 0 1 -34.13-17.52l-38-52.940004a41.85 41.85 0 0 1 4.43-54.19l17.44-17.44a71.05 71.05 0 0 1 100.48 0l17.44 17.44a41.85 41.85 0 0 1 4.43 54.19l-38 52.940004a41.56 41.56 0 0 1 -34.09 17.52zm0-150.900004a58.67 58.67 0 0 0 -41.76 17.3l-17.44 17.44a29.9 29.9 0 0 0 -3.16 38.7l38 52.940004a30 30 0 0 0 48.76 0l38-52.940004a29.9 29.9 0 0 0 -3.16-38.7l-17.48-17.44a58.67 58.67 0 0 0 -41.76-17.3z" fill="#fef649"/><path d="m297.35705 262.66013a42 42 0 0 1 -24.51-7.92l-52.94-38a42 42 0 0 1 0-68.26l52.94-38a41.87 41.87 0 0 1 54.19 4.43l38 38a42 42 0 0 1 0 59.4l-38 38a41.85 41.85 0 0 1 -29.68 12.35zm0-148a29.92 29.92 0 0 0 -17.5 5.66l-52.94 38a30 30 0 0 0 0 48.76l52.94 38a29.9 29.9 0 0 0 38.7-3.16l38-38a30 30 0 0 0 0-42.44l-38-38a29.91 29.91 0 0 0 -21.21-8.82z" fill="#fef649"/><path d="m182.62705 377.33013a41.86 41.86 0 0 1 -29.7-12.28l-38-38a41.85 41.85 0 0 1 -4.43-54.19l38-52.94a42 42 0 0 1 68.26 0l38 52.94a41.85 41.85 0 0 1 -4.43 54.19l-38 38a41.86 41.86 0 0 1 -29.7 12.28zm-62.36-97.45a29.9 29.9 0 0 0 3.16 38.7l38 38a30.05 30.05 0 0 0 42.44 0l38-38a29.9 29.9 0 0 0 3.16-38.7l-38-52.94a30 30 0 0 0 -48.76 0z" fill="#fef649"/><path d="m67.897053 262.66013a41.87 41.87 0 0 1 -29.68-12.35l-17.44-17.41a71.13 71.13 0 0 1 0-100.48l17.44-17.44a41.85 41.85 0 0 1 54.19-4.43l52.939997 38a42 42 0 0 1 0 68.26l-52.939997 38a42 42 0 0 1 -24.51 7.85zm0-148a29.91 29.91 0 0 0 -21.2 8.82l-17.43 17.42a59.12 59.12 0 0 0 0 83.52l17.44 17.44a29.89 29.89 0 0 0 38.7 3.16l52.939997-38a30 30 0 0 0 0-48.76l-52.939997-38a29.92 29.92 0 0 0 -17.5-5.6z" fill="#fef649"/><path d="m226.11705 181.01013a42 42 0 0 1 -41.26-48.85l10.84-65.900004a41.87 41.87 0 0 1 41.45-35.18h55.06a42 42 0 0 1 42 42v55.060004a41.87 41.87 0 0 1 -35.18 41.45l-65.9 10.84a42.77 42.77 0 0 1 -7.01.58zm11-137.930004a29.91 29.91 0 0 0 -29.61 25.13l-10.84 65.900004a30 30 0 0 0 34.48 34.48l65.9-10.84a29.91 29.91 0 0 0 25.13-29.61v-55.060004a30 30 0 0 0 -30-30z" fill="#fef649"/><path d="m292.20705 334.24013h-55.06a41.87 41.87 0 0 1 -41.45-35.18l-10.84-65.9a42 42 0 0 1 48.27-48.27l65.9 10.84a41.87 41.87 0 0 1 35.18 41.45v55.06a42 42 0 0 1 -42 42zm-84.67-37.13a29.91 29.91 0 0 0 29.61 25.13h55.06a30 30 0 0 0 30-30v-55.06a29.91 29.91 0 0 0 -25.13-29.61l-65.9-10.84a30 30 0 0 0 -34.48 34.48z" fill="#fef649"/><path d="m128.10705 334.24013h-55.059997a42 42 0 0 1 -42-42v-55.06a41.87 41.87 0 0 1 35.18-41.45l65.899997-10.84a42 42 0 0 1 48.27 48.27l-10.84 65.9a41.87 41.87 0 0 1 -41.45 35.18zm-59.929997-126.67a29.91 29.91 0 0 0 -25.13 29.61v55.06a30 30 0 0 0 30 30h55.059997a29.91 29.91 0 0 0 29.61-25.13l10.84-65.9a30 30 0 0 0 -34.48-34.48z" fill="#fef649"/><path d="m139.13705 181.01013a42.77 42.77 0 0 1 -7-.58l-65.899997-10.84a41.87 41.87 0 0 1 -35.18-41.45v-55.060004a42 42 0 0 1 42-42h55.059997a41.87 41.87 0 0 1 41.45 35.18l10.84 65.900004a42 42 0 0 1 -41.26 48.85zm-66.089997-137.930004a30 30 0 0 0 -30 30v55.060004a29.91 29.91 0 0 0 25.13 29.61l65.899997 10.84a30 30 0 0 0 34.48-34.48l-10.84-65.900004a29.91 29.91 0 0 0 -29.61-25.13z" fill="#fef649"/></svg>
